# xmcd
#
# Track frame offsets: 
#        150
#        9792
#        22627
#        34127
#        45490
#        61340
#        75585
#        88190
#        101942
#        119317
#        137970
#        149135
#        158772
#
# Disc length: 2328 seconds
#
# Revision: 0
# Processed by: cddbd v1.5PL3 Copyright (c) Steve Scherf et al.
# Submitted via: ExactAudioCopy v0.95a4
#
DISCID=a409160d
DTITLE=The Karl Shiflett and Big Country Show - The Karl Shiflett and Big 
DTITLE=Country Show
DYEAR=1999
DGENRE=Bluegrass
TTITLE0=Don't Let Your Deal Go Down
TTITLE1=The Love We Have Will Never Die
TTITLE2=I Don't Care Anymore
TTITLE3=Walkin' In The Big Country
TTITLE4=Where The Smoke Goes Up (And The Money Goes Down)
TTITLE5=I Know What It Means To Be Lonesome
TTITLE6=When The Angels Carry Me Home
TTITLE7=The Girl I Love Don't Pay Me No Mind
TTITLE8=Delbert's Breakdown
TTITLE9=The One I Love Is Gone
TTITLE10=It's You Baby You
TTITLE11=Gonna Have Myself A Ball
TTITLE12=The Trail Of The Ancients
EXTD=
EXTT0=
EXTT1=
EXTT2=
EXTT3=
EXTT4=
EXTT5=
EXTT6=
EXTT7=
EXTT8=
EXTT9=
EXTT10=
EXTT11=
EXTT12=
PLAYORDER=
